<svg width="1044" height="1402" viewBox="0 0 1044 1402" fill="none" xmlns="http://www.w3.org/2000/svg">
<path d="M115.5 1065V295H440C522.133 295 594.367 311.133 656.7 343.4C719.767 375.667 768.533 420.767 803 478.7C838.2 536.633 855.8 603.733 855.8 680C855.8 756.267 838.2 823.367 803 881.3C768.533 939.233 719.767 984.333 656.7 1016.6C594.367 1048.87 522.133 1065 440 1065H115.5ZM225.5 969.3H433.4C497.2 969.3 552.2 957.2 598.4 933C645.333 908.8 681.633 875.067 707.3 831.8C732.967 787.8 745.8 737.2 745.8 680C745.8 622.067 732.967 571.467 707.3 528.2C681.633 484.933 645.333 451.2 598.4 427C552.2 402.8 497.2 390.7 433.4 390.7H225.5V969.3Z" fill="#105071"/>
<path d="M115.5 1065H111.5V1069H115.5V1065ZM115.5 295V291H111.5V295H115.5ZM656.7 343.4L654.861 346.952L654.87 346.957L654.878 346.961L656.7 343.4ZM803 478.7L799.562 480.745L799.572 480.761L799.582 480.777L803 478.7ZM803 881.3L799.582 879.223L799.572 879.239L799.562 879.255L803 881.3ZM656.7 1016.6L654.878 1013.04L654.87 1013.04L654.861 1013.05L656.7 1016.6ZM225.5 969.3H221.5V973.3H225.5V969.3ZM598.4 933L596.567 929.445L596.555 929.451L596.544 929.457L598.4 933ZM707.3 831.8L710.74 833.841L710.748 833.828L710.755 833.815L707.3 831.8ZM707.3 528.2L703.86 530.241L703.86 530.241L707.3 528.2ZM598.4 427L596.544 430.543L596.555 430.549L596.567 430.555L598.4 427ZM225.5 390.7V386.7H221.5V390.7H225.5ZM119.5 1065V295H111.5V1065H119.5ZM115.5 299H440V291H115.5V299ZM440 299C521.602 299 593.186 315.026 654.861 346.952L658.539 339.848C595.548 307.241 522.664 291 440 291V299ZM654.878 346.961C717.31 378.903 765.501 423.493 799.562 480.745L806.438 476.655C771.566 418.04 722.223 372.43 658.522 339.839L654.878 346.961ZM799.582 480.777C834.355 538.009 851.8 604.372 851.8 680H859.8C859.8 603.095 842.045 535.258 806.418 476.623L799.582 480.777ZM851.8 680C851.8 755.628 834.355 821.991 799.582 879.223L806.418 883.377C842.045 824.742 859.8 756.905 859.8 680H851.8ZM799.562 879.255C765.501 936.507 717.31 981.097 654.878 1013.04L658.522 1020.16C722.223 987.57 771.566 941.96 806.438 883.345L799.562 879.255ZM654.861 1013.05C593.186 1044.97 521.602 1061 440 1061V1069C522.664 1069 595.548 1052.76 658.539 1020.15L654.861 1013.05ZM440 1061H115.5V1069H440V1061ZM225.5 973.3H433.4V965.3H225.5V973.3ZM433.4 973.3C497.704 973.3 553.369 961.103 600.256 936.543L596.544 929.457C551.031 953.297 496.696 965.3 433.4 965.3V973.3ZM600.233 936.555C647.799 912.029 684.671 877.786 710.74 833.841L703.86 829.759C678.596 872.347 642.868 905.571 596.567 929.445L600.233 936.555ZM710.755 833.815C736.821 789.131 749.8 737.819 749.8 680H741.8C741.8 736.581 729.112 786.469 703.845 829.785L710.755 833.815ZM749.8 680C749.8 621.459 736.826 570.132 710.74 526.159L703.86 530.241C729.107 572.801 741.8 622.674 741.8 680H749.8ZM710.74 526.159C684.671 482.214 647.799 447.971 600.233 423.445L596.567 430.555C642.868 454.429 678.596 487.652 703.86 530.241L710.74 526.159ZM600.256 423.457C553.369 398.897 497.704 386.7 433.4 386.7V394.7C496.696 394.7 551.031 406.703 596.544 430.543L600.256 423.457ZM433.4 386.7H225.5V394.7H433.4V386.7ZM221.5 390.7V969.3H229.5V390.7H221.5Z" fill="#FED600"/>
</svg>
